# xmcd
#
# Track frame offsets:
#   150
#   14535
#   31364
#   49692
#   67879
#   82577
#   100907
#   116670
#   135760
#   155993
#   172763
#   185375
#   206155
#
# Disc length: 2991 seconds
#
# Revision: 0
# Processed by: cddbd v1.5.2PL0 Copyright (c) Steve Scherf et al.
# Submitted via: uFREEDB ActiveX Control 1.5
#
DISCID=9f0bad0d
DTITLE=Leonardo  - Leonardo
DYEAR=1900
DGENRE=Country
TTITLE0=Te Amo de Mais
TTITLE1=Ultima Canção
TTITLE2=Vem Me Ajudar
TTITLE3=Pedaço de Mau Caminho
TTITLE4=Meu Mel
TTITLE5=Pouco à Pouco
TTITLE6=Ainda Queima à Esperança
TTITLE7=Longe de Você
TTITLE8=Como Esquecer de Você
TTITLE9=Feitiço
TTITLE10=Parei na Contra-Mão
TTITLE11=Eu Gosto Sim
TTITLE12=Eu Quero Cólo
EXTD=
EXTT0=
EXTT1=
EXTT2=
EXTT3=
EXTT4=
EXTT5=
EXTT6=
EXTT7=
EXTT8=
EXTT9=
EXTT10=
EXTT11=
EXTT12=
PLAYORDER=
